<svg width="140" height="171" viewBox="0 0 140 171" fill="none" xmlns="http://www.w3.org/2000/svg">
<rect width="140" height="171" rx="5" fill="#DCE2E5"/>
<path d="M81.5441 108.833H37.744V59.744H98.4895V74.8419C100.532 75.1834 102.464 75.8339 104.23 76.7738L104.227 58.8558C104.227 56.1758 102.051 54 99.3742 54L36.8494 54.0033C36.5144 54.0033 36.1859 54.0358 35.8704 54.1008C35.698 54.1366 35.5321 54.2049 35.3695 54.2602C35.2329 54.2992 35.0931 54.3285 34.9597 54.3838C34.8361 54.4391 34.7223 54.5171 34.6052 54.5822C34.4458 54.6635 34.2832 54.7351 34.1336 54.8326C34.1141 54.8489 34.0978 54.8684 34.0751 54.8847C32.8229 55.7596 32 57.2069 32 58.8558V109.721C32 112.401 34.1759 114.573 36.8493 114.573H77.2706L81.5441 108.833Z" fill="white"/>
<path d="M104.029 108.995C108.442 106.14 111.373 101.183 111.373 95.5335C111.373 86.6802 104.195 79.5055 95.3414 79.5055C86.4881 79.5055 79.3101 86.6804 79.3101 95.5335C79.3101 101.183 82.2373 106.139 86.6541 108.995L75.6768 124.659L86.0388 122.834L87.8634 133.196L95.3375 122.525L102.815 133.196L104.639 122.834L115.001 124.659L104.029 108.995ZM101.752 95.5301C99.1891 95.5301 97.1108 93.4518 97.1108 90.8889C97.1108 88.3228 99.1891 86.2477 101.752 86.2477C104.315 86.2477 106.393 88.3228 106.393 90.8889C106.39 93.4518 104.312 95.5301 101.752 95.5301Z" fill="white"/>
<path d="M47.358 67.3317H88.8716V73.0722H47.358V67.3317Z" fill="white"/>
<path d="M47.358 93.1462V98.8867H74.2167C74.0898 97.9467 74.002 96.9906 74.002 96.0181C74.002 95.0456 74.0898 94.0894 74.2167 93.1494L47.358 93.1462Z" fill="white"/>
<path d="M81.0075 80.2406H47.358V85.9811H76.5163C77.6709 83.8117 79.2029 81.8797 81.0079 80.2406H81.0075Z" fill="white"/>
</svg>
